<?xml version="1.0" encoding="UTF-8" standalone="no"?>
<svg width="11px" height="18px" viewBox="0 0 11 18" version="1.1" xmlns="http://www.w3.org/2000/svg" xmlns:xlink="http://www.w3.org/1999/xlink" xmlns:sketch="http://www.bohemiancoding.com/sketch/ns">
    <!-- Generator: Sketch 3.3.3 (12072) - http://www.bohemiancoding.com/sketch -->
    <title>Path Copy</title>
    <desc>Created with Sketch.</desc>
    <defs></defs>
    <g id="arrow-icons" stroke="none" stroke-width="1" fill="none" fill-rule="evenodd" sketch:type="MSPage">
        <path d="M9.9740546,16.3409919 L9.10219668,17.2120469 C8.98594896,17.3281876 8.85226407,17.3862579 8.70114203,17.3862579 C8.55002,17.3862579 8.41633511,17.3281876 8.30008739,17.2120469 L0.174371584,9.09381428 C0.0581238613,8.97767361 0,8.84411184 0,8.69312897 C0,8.5421461 0.0581238613,8.40858434 0.174371584,8.29244367 L8.30008739,0.174211001 C8.41633511,0.0580703338 8.55002,0 8.70114203,0 C8.85226407,0 8.98594896,0.0580703338 9.10219668,0.174211001 L9.9740546,1.04526601 C10.0903023,1.16140668 10.1484262,1.29496844 10.1484262,1.44595131 C10.1484262,1.59693418 10.0903023,1.73049595 9.9740546,1.84663662 L3.12125135,8.69312897 L9.9740546,15.5396213 C10.0903023,15.655762 10.1484262,15.7893238 10.1484262,15.9403066 C10.1484262,16.0912895 10.0903023,16.2248513 9.9740546,16.3409919 L9.9740546,16.3409919 Z" id="Path-Copy" fill="#00CBF2" sketch:type="MSShapeGroup"></path>
    </g>
</svg>