<?xml version="1.0" encoding="UTF-8" standalone="no"?>
<svg width="32px" height="25px" viewBox="0 0 32 25" version="1.1" xmlns="http://www.w3.org/2000/svg" xmlns:xlink="http://www.w3.org/1999/xlink" xmlns:sketch="http://www.bohemiancoding.com/sketch/ns">
    <!-- Generator: Sketch 3.3.1 (12002) - http://www.bohemiancoding.com/sketch -->
    <title>Shape</title>
    <desc>Created with Sketch.</desc>
    <defs></defs>
    <g id="Page-1" stroke="none" stroke-width="1" fill="none" fill-rule="evenodd" sketch:type="MSPage">
        <path d="M10.0840546,20.2715773 L9.21219668,21.1426323 C9.09594896,21.258773 8.96226407,21.3168433 8.81114203,21.3168433 C8.66002,21.3168433 8.52633511,21.258773 8.41008739,21.1426323 L0.284371584,13.0243996 C0.168123861,12.908259 0.11,12.7746972 0.11,12.6237143 C0.11,12.4727315 0.168123861,12.3391697 0.284371584,12.223029 L8.41008739,4.10479635 C8.52633511,3.98865568 8.66002,3.93058535 8.81114203,3.93058535 C8.96226407,3.93058535 9.09594896,3.98865568 9.21219668,4.10479635 L10.0840546,4.97585136 C10.2003023,5.09199203 10.2584262,5.2255538 10.2584262,5.37653666 C10.2584262,5.52751953 10.2003023,5.6610813 10.0840546,5.77722197 L3.23125135,12.6237143 L10.0840546,19.4702067 C10.2003023,19.5863473 10.2584262,19.7199091 10.2584262,19.870892 C10.2584262,20.0218749 10.2003023,20.1554366 10.0840546,20.2715773 L10.0840546,20.2715773 Z M20.3894152,1.68326343 L13.8853551,24.1739037 C13.838856,24.3248866 13.7487641,24.4381237 13.6150792,24.5136152 C13.4813943,24.5891066 13.3448032,24.6036242 13.2053059,24.5571679 L12.1242021,24.2610092 C11.9730801,24.214553 11.8597386,24.1245439 11.7841775,23.9909822 C11.7086165,23.8574204 11.6940856,23.7151481 11.7405846,23.5641652 L18.2446447,1.07352493 C18.2911438,0.922542059 18.3812358,0.809304908 18.5149207,0.733813474 C18.6486056,0.65832204 18.7851966,0.643804457 18.9246939,0.690260724 L20.0057977,0.986419427 C20.1569198,1.03287569 20.2702613,1.12288471 20.3458223,1.25644648 C20.4213833,1.39000825 20.4359143,1.53228056 20.3894152,1.68326343 L20.3894152,1.68326343 Z M31.8456283,13.0243996 L23.7199125,21.1426323 C23.6036647,21.258773 23.4699799,21.3168433 23.3188578,21.3168433 C23.1677358,21.3168433 23.0340509,21.258773 22.9178032,21.1426323 L22.0459453,20.2715773 C21.9296975,20.1554366 21.8715737,20.0218749 21.8715737,19.870892 C21.8715737,19.7199091 21.9296975,19.5863473 22.0459453,19.4702067 L28.8987485,12.6237143 L22.0459453,5.77722197 C21.9296975,5.6610813 21.8715737,5.52751953 21.8715737,5.37653666 C21.8715737,5.2255538 21.9296975,5.09199203 22.0459453,4.97585136 L22.9178032,4.10479635 C23.0340509,3.98865568 23.1677358,3.93058535 23.3188578,3.93058535 C23.4699799,3.93058535 23.6036647,3.98865568 23.7199125,4.10479635 L31.8456283,12.223029 C31.961876,12.3391697 32.0199998,12.4727315 32.0199998,12.6237143 C32.0199998,12.7746972 31.961876,12.908259 31.8456283,13.0243996 L31.8456283,13.0243996 Z" id="Shape" fill="#00CBF2" sketch:type="MSShapeGroup"></path>
    </g>
</svg>