<?xml version="1.0" encoding="UTF-8" standalone="no"?>
<svg width="401px" height="359px" viewBox="0 0 401 359" version="1.1" xmlns="http://www.w3.org/2000/svg" xmlns:xlink="http://www.w3.org/1999/xlink">
    <!-- Generator: Sketch Beta 39.1 (31721) - http://www.bohemiancoding.com/sketch -->
    <title>green revised</title>
    <desc>Created with Sketch Beta.</desc>
    <defs></defs>
    <g id="new-branding-4" stroke="none" stroke-width="1" fill="none" fill-rule="evenodd">
        <g id="scratch" transform="translate(2.000000, -391.000000)" stroke="#1B8181">
            <g id="green-revised" transform="translate(0.000000, 391.000000)">
                <g id="Group">
                    <path d="M198,296 C247.153343,296 287,246.303607 287,185 C287,123.696393 247.153343,74 198,74 C148.846657,74 109,123.696393 109,185 C109,246.303607 148.846657,296 198,296 Z" id="Oval" stroke-width="4" fill="#FFFFFF"></path>
                    <path d="M306.342253,84.2265963 C330.18217,92.9301125 337.783203,99.9511719 357.783203,121.451172 C363.435736,127.527645 370.676374,139.22647 376.248047,147.943359 C390.390274,170.068888 399.125438,216.62738 395.814453,225.449219 C393.866186,230.640212 389.268843,233.184743 389.314453,231.449219 C389.365059,229.523602 386.886719,212.5 364.886719,194 C342.886719,175.5 304.794923,146.314331 301.820312,146.449219 C290.320312,146.970703 288.005859,174.865234 288.005859,174.865234 C288.005859,174.865234 283.97368,152.423577 280.005859,141.365234 C274.00668,124.645481 254,94.5295559 254,94.5295559 C254,94.5295559 261.901303,68.0020207 306.342253,84.2265963 Z" id="arm" stroke-width="4" fill="#1B8181"></path>
                    <path d="M52.342253,86.2545247 C76.1821698,94.9580409 83.7832031,101.9791 103.783203,123.4791 C109.435736,129.555573 116.676374,141.254399 122.248047,149.971288 C136.390274,172.096817 145.125438,218.655309 141.814453,227.477147 C139.866186,232.66814 135.268843,235.212671 135.314453,233.477147 C135.365059,231.551531 132.886719,214.527928 110.886719,196.027928 C88.8867188,177.527928 50.7949227,148.342259 47.8203125,148.477147 C36.3203125,148.998632 34.0058594,176.893163 34.0058594,176.893163 C34.0058594,176.893163 29.9736801,154.451505 26.0058594,143.393163 C20.0066797,126.673409 0,96.5574843 0,96.5574843 C0,96.5574843 7.90130296,70.029949 52.342253,86.2545247 Z" id="arm" stroke-width="4" fill="#1B8181" transform="translate(71.257642, 157.509712) scale(-1, 1) translate(-71.257642, -157.509712) "></path>
                    <path d="M186.298828,74.2851562 C177.242133,75.5832995 158.652344,84.4941406 158.652344,84.4941406 L159.826172,86.421875 C159.826172,86.421875 144.759765,64.7923427 154.847656,39.4433594 C158.662011,29.8586007 162.504316,3.74812239 177.326172,1.421875 C201.863772,-2.42923026 201.847656,8.98046875 215.847656,29.4433594 C229.847656,49.90625 221.6875,75.4589844 221.6875,75.4589844 C221.6875,75.4589844 198.253851,72.5715807 186.298828,74.2851562 Z" id="head" fill="#1B8181"></path>
                    <path d="M159.044226,283.577686 C148.708565,276.07928 126.912101,253.847879 126.912101,253.847879 L117.369888,278.266155 C117.369888,278.266155 112.884149,289.732243 112.665514,290.306646 C109.52868,298.547799 103.347656,307.970105 103.347656,307.970105 C103.347656,307.970105 110.589378,314.527509 126.5625,309.585938 C128.508179,308.984007 163.993414,287.168267 159.044226,283.577686 Z" id="bottom-fin" fill="#1B8181"></path>
                    <path d="M269.412109,254 L268.5,255 C268.5,255 263.949219,264.484375 275.632812,273.65625 C287.316406,282.828125 295.079798,288.538603 295.079798,288.538603 C295.079798,288.538603 273.845373,294.146115 266.935547,292.5 C264.186932,291.845203 258.582669,290.95969 255,288.537109 C249.351198,284.717421 246,279 246,279 L269.412109,254 Z" id="bottom-fin" fill="#1B8181"></path>
                    <path d="M192.032227,296.694336 C182.282227,296.944336 177.521484,292.694336 177.521484,292.694336 C177.521484,292.694336 182.889493,322.483783 187.292969,331.199219 C188.090782,332.778265 193.183723,342.516959 201.851562,348.25 C212.049903,354.995337 225.990234,357.736328 225.990234,357.736328 C225.990234,357.736328 218.38853,351.632202 215.425781,348.375 C213.200379,345.928426 210.425781,340.625 210.425781,340.625 C210.425781,340.625 207.520828,331.821485 206.65625,324.708984 C205.320919,313.723803 206.657544,300.687146 205.840287,295.689792 C205.791478,295.391337 201.782227,296.444336 192.032227,296.694336 Z" id="Path-6" fill="#1B8181"></path>
                    <path d="M250.912113,119.000001 C250.524222,120.114354 228.927732,101.5 193.382814,108.75 C188.003094,109.847287 178.812499,110.048828 162.355468,119.000001 C150.129369,125.649919 138.912004,136.117561 140.16334,130.242651 C144.135889,120.879559 152.698702,109.460036 162.355469,101.021484 C169.826329,94.4930827 176.653661,89.8711863 190.680664,88.5966797 C222.923999,85.6670201 252.845016,113.447062 250.912113,119.000001 Z" id="arch" stroke-width="4" fill="#1B8181"></path>
                    <path d="M148.460937,257.183594 C142.437565,250.291986 137.044003,240.213771 135.210937,236.433594 C133.940637,233.813961 124.101771,210.691946 123.099609,189.132814 C122.288139,171.675967 129.195039,155.58197 135.948054,149.558386 C140.29804,145.678268 145.406825,142.393826 150.638467,139.649699 C163.558832,132.872645 177.228524,129.391084 182.068359,128.371094 C191.173526,126.45219 226.066406,244.685547 213.066406,251.185547 C206.973644,254.231928 198.923331,254.578742 184.029297,250.279297 C182.345772,249.793316 162.486328,239.779297 158.007812,214.779297 C153.529297,189.779297 157.339357,173.237779 159.259766,170.179688 C165.853516,159.679688 178.421469,182.346002 179.743164,191.481445 C179.965596,193.018873 181.275055,199.25585 181.259766,200.179688 C181.170446,205.576768 196.074219,207.15625 198.037109,198.15625 C200,189.15625 181.443359,138.742188 156.943359,149.263672 C132.443359,159.785156 138.013672,201.742188 144.978516,224.263672 C151.943359,246.785156 172.201124,260.519749 178.5,262.691406 C190,266.65625 200.794855,269.356193 205.464844,269.212891 C216.176264,268.884202 239.486328,265.712891 233.486328,240.212891 C227.486328,214.712891 202.865885,124.259813 203.460938,123.386719 C204.310609,122.140033 224.895164,118.591918 241.634766,124.632813 C256.30102,129.925489 267.038878,141.59215 268.009763,147.699218 C268.504433,150.810793 273.03515,166.132811 273.03515,189.132811 C273.03515,212.132811 269.39384,230.635334 254.919231,251.900959 C235.121491,280.987153 214.774915,281.281788 205.535158,282.132818 C185.280746,283.998356 176.975372,277.1521 161.784181,268.720709 C157.607962,266.40283 154.537198,264.135713 148.460937,257.183594 Z" id="J" fill="#1B8181"></path>
                </g>
            </g>
        </g>
    </g>
</svg>